<svg width="24" height="24" viewBox="0 0 24 24" fill="none" xmlns="http://www.w3.org/2000/svg">
<path d="M10.5 16.9999C10.3684 17.0007 10.2379 16.9755 10.1161 16.9257C9.99426 16.8759 9.88344 16.8026 9.79 16.7099C9.69627 16.617 9.62188 16.5064 9.57111 16.3845C9.52034 16.2626 9.4942 16.1319 9.4942 15.9999C9.4942 15.8679 9.52034 15.7372 9.57111 15.6154C9.62188 15.4935 9.69627 15.3829 9.79 15.2899L13.1 11.9999L9.92 8.68993C9.73375 8.50257 9.62921 8.24911 9.62921 7.98493C9.62921 7.72074 9.73375 7.46729 9.92 7.27993C10.013 7.1862 10.1236 7.11181 10.2454 7.06104C10.3673 7.01027 10.498 6.98413 10.63 6.98413C10.762 6.98413 10.8927 7.01027 11.0146 7.06104C11.1364 7.11181 11.247 7.1862 11.34 7.27993L15.2 11.2799C15.3832 11.4669 15.4859 11.7182 15.4859 11.9799C15.4859 12.2417 15.3832 12.493 15.2 12.6799L11.2 16.6799C11.1102 16.7769 11.0022 16.855 10.882 16.91C10.7619 16.9649 10.632 16.9955 10.5 16.9999Z" fill="#3671E9"/>
</svg>
