<svg width="48" height="38" viewBox="0 0 48 38" fill="none" xmlns="http://www.w3.org/2000/svg">
<path d="M17.4935 7.22754H30.4592V30.9539H17.4935V7.22754Z" fill="#BDBDBD"/>
<path d="M18.3167 19.091C18.3167 14.2703 20.5393 9.99445 23.9556 7.22771C21.4449 5.21562 18.2756 4 14.8181 4C6.62681 4 0 10.7489 0 19.091C0 27.4328 6.62681 34.1819 14.8179 34.1819C18.2754 34.1819 21.4447 32.9663 23.9556 30.954C20.5393 28.2293 18.3167 23.9116 18.3167 19.091Z" fill="#828282"/>
<path d="M47.9524 19.091C47.9524 27.4328 41.3256 34.1819 33.1345 34.1819C29.677 34.1819 26.5076 32.9663 23.9968 30.954C27.4543 28.1875 29.6359 23.9116 29.6359 19.091C29.6359 14.2703 27.4131 9.99445 23.9968 7.22771C26.5075 5.21562 29.677 4 33.1345 4C41.3256 4 47.9526 10.7909 47.9526 19.091H47.9524Z" fill="#E0E0E0"/>
</svg>
